Coordinates
version=1
nRows=13
nColumns=36
inDegrees=yes

Units are S.I. units (second, meters, Newtons, ...)
If the header above contains a line with 'inDegrees', this indicates whether rotational values are in degrees (yes) or radians (no).

endheader
time	pelvis_tilt	pelvis_list	pelvis_rotation	pelvis_tx	pelvis_ty	pelvis_tz	hip_flexion_r	hip_adduction_r	hip_rotation_r	knee_angle_r	knee_angle_r_beta	ankle_angle_r	subtalar_angle_r	mtp_angle_r	hip_flexion_l	hip_adduction_l	hip_rotation_l	knee_angle_l	knee_angle_l_beta	ankle_angle_l	subtalar_angle_l	mtp_angle_l	lumbar_extension	lumbar_bending	lumbar_rotation	arm_flex_r	arm_add_r	arm_rot_r	elbow_flex_r	pro_sup_r	arm_flex_l	arm_add_l	arm_rot_l	elbow_flex_l	pro_sup_l
     44.93333330	     -1.27305260	      1.73691091	    180.37463922	      0.57621667	      1.10772641	      0.74244433	     23.20001307	     -2.62188681	     -3.76585447	     35.74924496	      0.62394203	     -5.59412756	     -7.38810489	     -7.49999987	     -2.13969914	     -0.50202524	      5.39162554	     10.95649483	      0.19122691	      1.82765334	     -4.33901543	     -7.49999987	    -16.96306811	      0.95827176	     -2.67777229	      3.64711505	    -11.72873490	      1.23757979	     24.06201552	    102.06517032	     22.10850808	    -16.03872064	      1.72367175	     31.25326626	    101.21794352
     44.95000000	     -0.94917030	      1.50187596	    180.49867711	      0.57518581	      1.10786496	      0.74163526	     21.57762742	     -2.68792501	     -4.08557768	     27.69245108	      0.48332445	     -7.14683138	     -6.30552193	     -7.49999987	     -3.04418909	     -0.36156630	      5.64247620	     10.21358576	      0.17826070	      2.52445598	     -3.76161475	     -7.49999987	    -16.55001855	      0.73144259	     -2.87203307	      3.47991091	    -11.37123093	      0.87198625	     23.78605921	    102.21414493	     21.75938618	    -16.29958307	      0.67741523	     32.43220503	    100.86634881
     44.96666670	     -0.53740690	      0.83427658	    180.78174980	      0.57520968	      1.10478179	      0.73935231	     20.12320631	     -3.23859405	     -4.06606882	     20.03593600	      0.34969305	     -8.76160898	     -5.18943903	     -7.49999987	     -3.75610903	      0.22245767	      6.16401212	      9.70359906	      0.16935975	      2.75807558	     -3.84707766	     -7.49999987	    -16.01668141	     -0.00615271	     -3.23578464	      3.04782262	    -10.86610188	      0.07990191	     24.10775932	    102.56638946	     21.14081628	    -16.72350746	     -0.47460337	     34.08070431	    100.46469229
     44.98333330	     -0.21128654	     -0.07590505	    180.93607967	      0.57662844	      1.10007226	      0.73563841	     19.10018455	     -4.06823529	     -3.89889277	     13.61802344	      0.23767935	     -9.63951583	     -3.27060275	     -7.49999987	     -4.39868590	      1.00759384	      6.10745406	      9.56166460	      0.16688253	      3.19912392	     -3.54658699	     -7.49999987	    -15.54338877	     -1.16190389	     -3.29861834	      2.79985400	    -10.32427840	     -0.50929468	     24.08821896	    103.23273036	     20.97272708	    -17.23068220	     -0.91887343	     35.04735921	    100.84846244
     45.00000000	      0.15324143	     -1.00357633	    181.15399956	      0.57862510	      1.09524722	      0.73189790	     18.50177912	     -4.90807439	     -3.49649876	      8.58967947	      0.14991819	    -10.28034310	     -1.60576967	     -7.49999987	     -4.70392645	      1.81274750	      6.22273780	     10.03234235	      0.17509741	      3.83696984	     -3.65891267	     -7.49999987	    -15.12621398	     -2.31920199	     -3.47129673	      2.49651881	     -9.87127383	     -1.29445803	     24.81772650	    103.35015266	     20.70726738	    -17.75572422	     -1.50143593	     36.21476761	    100.78167722
     45.01666670	      0.42168187	     -1.84239665	    181.26545120	      0.58036369	      1.09106444	      0.72868776	     18.22056411	     -5.61400832	     -2.81302924	      5.06381509	      0.08838025	    -10.49867023	     -0.11011152	     -7.49999987	     -4.86820776	      2.52227337	      6.03336518	     10.96650882	      0.19140169	      4.81847711	     -3.48808950	     -7.49999987	    -14.83881625	     -3.46135477	     -3.32012856	      2.50310418	     -9.51478490	     -1.92172137	     25.18922985	    103.10251002	     20.90378573	    -18.21716924	     -1.37617925	     36.84131637	    100.36471759
     45.03333330	      0.71348236	     -2.47397071	    181.42567243	      0.58144426	      1.08678173	      0.72645031	     18.23268895	     -6.14738551	     -2.06661886	      2.79080139	      0.04870867	    -10.43055468	      1.10080951	     -7.49999987	     -4.70113682	      3.04233395	      5.77452897	     12.47046840	      0.21765073	      5.86608106	     -3.54967824	     -7.49999987	    -14.54643724	     -4.33175310	     -3.20190205	      2.77413664	     -9.41567073	     -2.14739945	     25.44414227	    103.11609801	     21.22876950	    -18.52002658	     -1.37723088	     37.16117072	    100.38183300
     45.05000000	      0.98812414	     -2.97672532	    181.63766587	      0.58267961	      1.08205421	      0.72448137	     18.44987410	     -6.58046386	     -1.30588996	      1.79311847	      0.03129582	     -9.97414301	      2.02723609	     -7.49999987	     -4.24083233	      3.40551755	      5.27007768	     14.57431444	      0.25436977	      6.98848064	     -3.34500082	     -7.49999987	    -14.33683865	     -4.98904671	     -3.14503801	      3.19914049	     -9.41435538	     -2.49497111	     25.66812588	    103.12548500	     21.60958618	    -18.71075106	     -1.23184061	     37.52670579	    100.44421818
     45.06666670	      1.26204278	     -3.24726359	    181.81308427	      0.58449635	      1.07773894	      0.72208166	     18.69544521	     -6.72923509	     -0.62690672	      1.72068916	      0.03003169	     -9.75056241	      2.44668962	     -7.49999987	     -3.48138398	      3.46034342	      4.56136744	     17.33391914	      0.30253396	      7.87624579	     -3.04873412	     -7.49999987	    -14.10076496	     -5.36955477	     -3.07404842	      3.76644344	     -9.49707824	     -2.86833523	     25.83977743	    103.14296256	     21.96337340	    -18.79993754	     -0.99440740	     37.78262689	    100.52843241
     45.08333330	      1.68368884	     -3.31656548	    181.90325855	      0.58616241	      1.07448597	      0.71901450	     19.17467175	     -6.58139406	      0.16535772	      2.42405872	      0.04230781	     -9.77716415	      2.06754497	     -7.49999987	     -2.23518656	      3.17773276	      3.50614977	     20.85355258	      0.36396315	      8.46716520	     -2.41762775	     -7.49999987	    -13.67371505	     -5.52801155	     -2.54574734	      3.96913239	     -9.46569352	     -5.03602635	     26.28138083	    104.48751285	     22.76402275	    -18.69118293	      0.32724737	     37.32398643	    100.88956605
     45.10000000	      1.90964800	     -3.13621113	    181.95216644	      0.58646273	      1.07246898	      0.71588608	     19.53068731	     -6.10871090	      0.76946150	      3.67940466	      0.06421773	     -9.68594403	      1.14602536	     -7.49999987	     -0.97609389	      2.59698247	      2.73036059	     24.86398222	      0.43395835	      8.43992225	     -2.34550843	     -7.49999987	    -13.51111078	     -5.31833564	     -2.54785730	      4.90526120	     -9.78387620	     -4.47761120	     25.96376972	    104.37556418	     22.88512568	    -18.51676814	      0.21666123	     37.25217985	    100.33732729
     45.11666670	      1.72608717	     -2.79173737	    181.92215186	      0.58470891	      1.07129101	      0.71362013	     19.49020583	     -5.42178586	      1.01509783	      5.36767019	      0.09368352	     -9.44933099	      0.21561054	     -7.49999987	      0.01308503	      1.84696887	      2.12725385	     29.19216829	      0.50949945	      7.92865427	     -2.69258263	     -7.49999987	    -13.90680070	     -4.86001935	     -2.30798872	      5.68046202	    -10.13943844	     -4.48923942	     25.98038297	    104.37187511	     23.06243157	    -18.12538031	      0.18211444	     37.14337189	    100.31886876
     45.13333330	      2.04771887	     -2.38006758	    181.82734822	      0.58171079	      1.06709129	      0.71227057	     19.99827744	     -4.62557401	      1.55005389	      7.11812967	      0.12423480	     -9.53098137	     -1.58676668	     -7.49999987	      1.78468270	      1.02708643	      1.47431199	     33.99492733	      0.59332341	      7.17394159	     -2.93737194	     -7.49999987	    -13.56516223	     -4.35062215	     -1.98124103	      6.28764126	    -10.51092607	     -4.22863981	     25.73067167	    104.37948919	     23.02054438	    -17.48064838	     -0.20720402	     36.42652369	    100.22759290
